<mxfile host="app.diagrams.net" modified="2023-09-22T12:36:02.749Z" agent="Mozilla/5.0 (Windows NT 10.0; Win64; x64) AppleWebKit/537.36 (KHTML, like Gecko) Chrome/117.0.0.0 Safari/537.36" version="21.3.6" etag="zg1X-aJRd8p7ZpNd8sCU" type="github">
  <diagram name="PÃ¡gina-1" id="mB6edTj2ioihwGYMp6R5">
    <mxGraphModel>
      <root>
        <mxCell id="0" />
        <mxCell id="1" parent="0" />
      </root>
    </mxGraphModel>
  </diagram>
</mxfile>
